<svg id="Layer_1" data-name="Layer 1" xmlns="http://www.w3.org/2000/svg" xmlns:xlink="http://www.w3.org/1999/xlink" viewBox="0 0 500 472.7"><defs><style>.cls-1{fill:none;}.cls-2{clip-path:url(#clip-path);}.cls-3{clip-path:url(#clip-path-2);}.cls-4{fill:#231f20;}</style><clipPath id="clip-path" transform="translate(-750 -763.65)"><rect class="cls-1" x="500" y="500" width="1000" height="1000"/></clipPath><clipPath id="clip-path-2" transform="translate(-750 -763.65)"><rect class="cls-1" x="750" y="750" width="500" height="500"/></clipPath></defs><title>tceLOGO</title><g class="cls-2"><g class="cls-3"><path class="cls-4" d="M1249.25,1039.2a183.41,183.41,0,0,0-4.38-21.81c-1.17-4.49-2.41-9-3.79-13.41-1.26-4.05-2.68-8.06-4.17-12s-2.92-7.68-4.59-11.44c-2.75-6.2-5.71-12.31-9-18.28-2.83-5.22-5.75-10.39-9-15.37-2-3.07-4-6.17-6-9.18-3.2-4.62-6.44-9.23-9.78-13.76-2.84-3.84-5.79-7.61-8.79-11.32q-5.22-6.47-10.62-12.78c-3.07-3.6-6.22-7.13-9.39-10.65q-4.44-4.92-9-9.75c-3.07-3.24-6.18-6.45-9.35-9.59-5-4.91-9.92-9.8-15-14.61-3.42-3.26-7-6.41-10.49-9.54q-6.88-6.06-13.86-12c-2.48-2.12-5-4.13-7.58-6.17-2-1.59-4-3.17-6-4.69-3.33-2.49-6.67-5-10-7.37-3.7-2.66-7.39-5.34-11.2-7.83-4.45-2.9-9-5.62-13.55-8.4-6.51-4-13.27-7.56-20.09-11a286,286,0,0,0-28.1-12.31,223.08,223.08,0,0,0-23.44-7.58c-8.63-2.19-17.29-4.13-26.22-4.57a80.19,80.19,0,0,0-16.31.71,51.53,51.53,0,0,0-15.89,5.45c-1.33.7-2.49,1.73-3.79,2.51a34.84,34.84,0,0,0-9.22,8.65,34.38,34.38,0,0,0-6.25,12.06,36.79,36.79,0,0,0-1.69,11.62,52.82,52.82,0,0,0,.07,7.23c.39,3.37,1.08,6.71,1.75,10a89,89,0,0,0,3.85,13c1.43,3.9,2.87,7.8,4.4,11.66,2.79,7,6.13,13.81,9.55,20.54,4.12,8.09,8.3,16.15,12.63,24.12,5.06,9.31,10.33,18.51,15.48,27.77,6.1,11,12.22,21.95,18.25,33,3.55,6.5,6.82,13.13,9.87,19.87a51.73,51.73,0,0,0-4,5.87,55.55,55.55,0,0,0-5.26,11.57,58.73,58.73,0,0,0-2.11,10.49,81.58,81.58,0,0,0,.33,19.13,140.39,140.39,0,0,0,3.71,20.3c.34,1.28.66,2.57,1,3.86a73.22,73.22,0,0,1-6.93,4.49,108.73,108.73,0,0,1-27.36,10.72c-5.23,1.32-10.55,2.31-15.82,3.46-.4.08-.79.22-1.19.33l.06.28c2-.09,4-.11,6-.3,3.43-.33,6.85-.67,10.25-1.18,3.75-.57,7.49-1.22,11.19-2a107.44,107.44,0,0,0,17-5.76c2.84-1.16,5.61-2.47,8.33-3.86.52,2.12,1,4.25,1.59,6.37.88,3.41,1.92,6.77,2.85,10.17q2.08,7.54,4.11,15.11c1,3.82,2.14,7.63,3,11.48,1,4.37,2,8.76,2.78,13.18.88,4.9,1.58,9.83,2.28,14.76.33,2.32.54,4.67.65,7,.12,2.74.19,5.5.06,8.23s-.52,5.39-.83,8.08c-.23,2.08-1.24,4-1.3,6.11a2,2,0,0,1-.28.74c-.48,1.15-1,2.28-1.44,3.45a26.14,26.14,0,0,1-4.11,7.39c-.31.37-.72.67-1,1.06a19.35,19.35,0,0,1-4.57,4.19,16.79,16.79,0,0,1-5.55,2.88,5.85,5.85,0,0,0-1.26.43,17,17,0,0,1-5.08,1.5,32.44,32.44,0,0,1-6.23.55,66.7,66.7,0,0,1-8-.28,37.84,37.84,0,0,1-8.41-1.53c-.25-.08-.53-.07-.79-.13-2.25-.57-4.51-1.07-6.74-1.72-1.79-.53-3.55-1.2-5.31-1.84-2.09-.77-4.19-1.54-6.24-2.4s-4.33-1.91-6.46-2.93c-3.27-1.54-6.58-3-9.76-4.73-4.53-2.42-9-5-13.43-7.56-2.74-1.59-5.46-3.23-8.11-5-7.18-4.7-14.19-9.64-21.07-14.76-3.48-2.58-6.86-5.29-10.22-8-3-2.42-6-4.87-8.83-7.41q-8-7-15.86-14.21c-3.55-3.26-7-6.62-10.41-10s-6.52-6.75-9.68-10.21-6-6.85-9.05-10.24a230.32,230.32,0,0,1-16.88-21.5c-3.48-5-6.8-10.06-10-15.21-2.46-3.94-4.69-8-6.9-12.11a231.46,231.46,0,0,1-10.64-22.53A329.75,329.75,0,0,1,754.8,963.2q-1.56-5.48-3.17-10.94a5.19,5.19,0,0,0-1.24-2.47,12.94,12.94,0,0,0-.36,1.68,52.9,52.9,0,0,0,.74,9.73,181.34,181.34,0,0,0,4.4,21.8c1.18,4.5,2.42,9,3.81,13.41,1.27,4.05,2.69,8.05,4.18,12s2.94,7.67,4.61,11.42c2.76,6.2,5.73,12.31,9,18.27,2.84,5.22,5.76,10.39,9,15.37,2,3.06,4,6.16,6,9.16,3.21,4.62,6.45,9.23,9.8,13.75,2.85,3.84,5.8,7.6,8.81,11.31q5.22,6.46,10.63,12.77c3.08,3.59,6.24,7.12,9.41,10.63,3,3.28,6,6.54,9,9.74s6.19,6.44,9.37,9.58c4.95,4.9,9.93,9.78,15,14.58,3.42,3.26,7,6.41,10.5,9.53q6.88,6.06,13.88,12c2.48,2.11,5,4.13,7.58,6.16,2,1.58,4,3.16,6,4.68q5,3.74,10.05,7.36c3.7,2.65,7.39,5.33,11.2,7.81,4.46,2.9,9,5.61,13.56,8.39,6.52,4,13.28,7.53,20.11,11a289.34,289.34,0,0,0,28.11,12.27,221.64,221.64,0,0,0,23.46,7.54c8.63,2.18,17.29,4.11,26.23,4.53a79.43,79.43,0,0,0,16.3-.73,51.17,51.17,0,0,0,15.88-5.47c1.34-.7,2.49-1.73,3.79-2.51a34.87,34.87,0,0,0,9.21-8.67,34.25,34.25,0,0,0,6.23-12.06,45.83,45.83,0,0,0,1.33-5.88,47.85,47.85,0,0,0,.35-5.75,54.46,54.46,0,0,0-.08-7.23c-.4-3.37-1.1-6.7-1.77-10a87.43,87.43,0,0,0-3.86-13c-1.44-3.89-2.88-7.79-4.42-11.65-2.8-7-6.15-13.81-9.58-20.53-4.13-8.08-8.32-16.14-12.66-24.1-5.08-9.31-10.36-18.49-15.52-27.75-6.12-11-12.25-21.94-18.3-33-3.57-6.5-6.85-13.15-9.91-19.89a54,54,0,0,0,4-5.79,56,56,0,0,0,5.27-11.56,59.77,59.77,0,0,0,2.13-10.5,82.14,82.14,0,0,0-.3-19.13,141.71,141.71,0,0,0-3.69-20.3c-.34-1.32-.68-2.64-1-4a71.41,71.41,0,0,1,6.84-4.44,109.08,109.08,0,0,1,27.34-10.76c5.23-1.32,10.55-2.33,15.82-3.48.4-.08.79-.22,1.19-.33l-.06-.28c-2,.09-4,.11-6,.3-3.43.34-6.85.69-10.25,1.2-3.75.58-7.49,1.23-11.19,2.06a106.28,106.28,0,0,0-17,5.78c-2.81,1.15-5.54,2.44-8.22,3.82-.51-2.09-1-4.18-1.56-6.27-.87-3.41-1.9-6.78-2.84-10.18q-2.06-7.54-4.09-15.12c-1-3.82-2.12-7.62-3-11.48-1-4.37-2-8.76-2.75-13.18-.88-4.9-1.58-9.83-2.27-14.76-.32-2.33-.53-4.68-.63-7-.12-2.74-.19-5.49-.06-8.23s.54-5.38.84-8.07c.24-2.08,1.25-4,1.31-6.11a2.55,2.55,0,0,1,.28-.75c.49-1.14,1-2.27,1.45-3.44a26.17,26.17,0,0,1,4.12-7.39c.31-.37.72-.66,1-1a19.35,19.35,0,0,1,4.57-4.19,16.76,16.76,0,0,1,5.55-2.87,5.85,5.85,0,0,0,1.26-.43,16.66,16.66,0,0,1,5.08-1.49,33.29,33.29,0,0,1,6.24-.55,68.77,68.77,0,0,1,8,.3,38.33,38.33,0,0,1,8.41,1.54c.25.08.53.07.79.14,2.25.56,4.51,1.07,6.74,1.72,1.79.53,3.55,1.2,5.3,1.85,2.09.78,4.19,1.54,6.24,2.41s4.33,1.92,6.46,2.93c3.27,1.55,6.57,3,9.75,4.75,4.53,2.43,9,5,13.42,7.58,2.74,1.59,5.46,3.24,8.11,5,7.17,4.71,14.17,9.66,21.05,14.79,3.47,2.58,6.84,5.3,10.21,8,3,2.42,5.93,4.88,8.81,7.42q8,7.05,15.85,14.24,5.31,4.89,10.39,10c3.3,3.33,6.51,6.76,9.67,10.23s6,6.85,9,10.25A229.91,229.91,0,0,1,1206,952.81q5.2,7.47,10,15.23c2.45,3.94,4.68,8,6.88,12.11a231.56,231.56,0,0,1,10.61,22.55,330.42,330.42,0,0,1,11.77,34.49q1.56,5.49,3.16,11a5.33,5.33,0,0,0,1.23,2.48,10.73,10.73,0,0,0,.36-1.68,52.92,52.92,0,0,0-.71-9.74M1000,973.39c8,0,14.47,11.91,14.47,26.61s-6.48,26.62-14.47,26.62-14.48-11.92-14.48-26.62S992,973.39,1000,973.39" transform="translate(-750 -763.65)"/></g></g></svg>